<?xml version="1.0" encoding="UTF-8"?>
<svg id="BLACK" xmlns="http://www.w3.org/2000/svg" viewBox="0 0 1852.97 815.71">
  <defs>
    <style>
      .cls-1 {
        fill: none;
        stroke: #000;
        stroke-miterlimit: 10;
        stroke-width: 6px;
      }
    </style>
  </defs>
  <g id="BOX_BLACK" data-name="BOX BLACK">
    <rect class="cls-1" x="26.97" y="27.14" width="1802" height="748.21"/>
  </g>
  <g id="KATAWARNA_FILM_BLACK" data-name="KATAWARNA FILM BLACK">
    <g>
      <path d="M502.49,639.54h6.32v33.44l32.16-33.44h8.24l-24.08,24.48,25.04,31.52h-7.92l-21.52-27.12-11.92,12.08v15.04h-6.32v-56Z"/>
      <path d="M587.13,639.14h5.92l25.52,56.4h-6.8l-6.56-14.8h-30.48l-6.64,14.8h-6.48l25.52-56.4ZM602.73,675.06l-12.72-28.56-12.8,28.56h25.52Z"/>
      <path d="M645.29,645.38h-18.88v-5.84h44.08v5.84h-18.88v50.16h-6.32v-50.16Z"/>
      <path d="M703.85,639.14h5.92l25.52,56.4h-6.8l-6.56-14.8h-30.48l-6.64,14.8h-6.48l25.52-56.4ZM719.45,675.06l-12.72-28.56-12.8,28.56h25.52Z"/>
      <path d="M742.81,639.54h6.88l16,46.64,15.36-46.8h5.2l15.36,46.8,16-46.64h6.64l-20,56.4h-5.36l-15.36-45.44-15.44,45.44h-5.28l-20-56.4Z"/>
      <path d="M857.21,639.14h5.92l25.52,56.4h-6.8l-6.56-14.8h-30.48l-6.64,14.8h-6.48l25.52-56.4ZM872.81,675.06l-12.72-28.56-12.8,28.56h25.52Z"/>
      <path d="M907.69,639.54h24.08c6.96,0,12.4,2.08,15.92,5.6,2.8,2.8,4.32,6.56,4.32,11.04v.16c0,9.28-6.4,14.8-15.2,16.32l17.2,22.88h-7.76l-16.24-21.76h-16v21.76h-6.32v-56ZM931.21,668.1c8.32,0,14.4-4.32,14.4-11.52v-.16c0-6.96-5.28-11.04-14.32-11.04h-17.28v22.72h17.2Z"/>
      <path d="M973.53,639.54h5.92l35.28,44.88v-44.88h6.16v56h-5.04l-36.16-45.92v45.92h-6.16v-56Z"/>
      <path d="M1065.45,639.14h5.92l25.52,56.4h-6.8l-6.56-14.8h-30.48l-6.64,14.8h-6.48l25.52-56.4ZM1081.05,675.06l-12.72-28.56-12.8,28.56h25.52Z"/>
      <path d="M1147.93,639.54h40.24v5.84h-33.92v20h30.32v5.76h-30.32v24.4h-6.32v-56Z"/>
      <path d="M1208.96,639.54h6.32v56h-6.32v-56Z"/>
      <path d="M1239.68,639.54h6.32v50.16h31.52v5.84h-37.84v-56Z"/>
      <path d="M1296.88,639.54h6.4l20.4,30.56,20.4-30.56h6.4v56h-6.32v-45.36l-20.4,30h-.32l-20.4-29.92v45.28h-6.16v-56Z"/>
    </g>
  </g>
  <g id="LOGOGRAM_BLACK" data-name="LOGOGRAM BLACK">
    <g>
      <path d="M271.58,79.87h-27.9l-83.38,106.55-19.86-26.12v-80.26h-21.67v495.3h21.67v-80.26l19.86-26.12,83.38,106.55h27.9l-97.33-124.72,93.34-122.54h.87l-.44-.57.44-.57h-.87l-93.34-122.54,97.33-124.72ZM240.29,327.69l-99.85,131.06V196.63l99.85,131.06Z"/>
      <path d="M429.48,141.97h-93.56l-37.26-62.1h-25.61l148.69,247.82-148.69,247.82h25.61l37.26-62.1h93.56v62.1h21.5V79.87h-21.5v62.1ZM429.48,164.8v133.02l-79.93-133.02h79.93ZM429.48,490.59h-79.93l79.93-133.02v133.02Z"/>
      <polygon points="610.55 312.46 548.84 312.46 548.84 79.87 527.17 79.87 527.17 312.46 465.29 312.46 465.29 341.03 527.17 341.03 527.17 575.52 548.84 575.52 548.84 341.03 610.55 341.03 610.55 312.46"/>
      <path d="M738.39,141.97h-93.56l-37.26-62.1h-25.61l148.69,247.82-148.69,247.82h25.61l37.26-62.1h93.56v62.1h21.5V79.87h-21.5v62.1ZM738.39,164.8v133.02l-79.93-133.02h79.93ZM738.39,490.59h-79.93l79.93-133.02v133.02Z"/>
      <path d="M1117.05,328.27l-.34-.57.34-.57h-.69l-148.35-247.25h-28.89v205.67l-123.43-205.67h-28.89v495.65h28.89l123.43-205.67v205.67h28.89l148.35-247.25h.69ZM808.47,545.07V110.31l130.31,217.38-130.31,217.38ZM960.79,545.07V110.31l130.31,217.38-130.31,217.38Z"/>
      <path d="M1154.96,141.97h-93.56l-37.26-62.1h-25.61l148.69,247.82-148.69,247.82h25.61l37.26-62.1h93.56v62.1h21.5V79.87h-21.5v62.1ZM1154.96,164.8v133.02l-79.93-133.02h79.93ZM1154.96,490.59h-79.93l79.93-133.02v133.02Z"/>
      <path d="M1339.45,79.87l-55.31,112.26h-56.46v-112.09h-21.67v495.3h21.67v-112.09h56.46l55.31,112.26h24.29l-56.3-114.51c13.9-3.92,25.28-11.88,34.14-23.87,9.08-12.34,13.62-26.29,13.62-41.86,0-18.8-6.29-34.83-18.88-48.09-10.49-11.15-22.82-17.64-36.97-19.49,14.15-1.85,26.47-8.34,36.97-19.49,12.58-13.26,18.88-29.29,18.88-48.09,0-15.57-4.54-29.52-13.62-41.86-8.86-11.99-20.24-19.95-34.14-23.87l56.3-114.51h-24.29ZM1333.55,395.28c0,12.45-4.16,23.12-12.47,32-8.43,8.76-18.55,13.15-30.37,13.15h-63.03v-90.47h63.03c11.82,0,21.94,4.44,30.37,13.32,8.31,8.88,12.47,19.55,12.47,32ZM1321.07,228.11c8.31,8.88,12.47,19.55,12.47,32s-4.16,23.12-12.47,32c-8.43,8.88-18.55,13.32-30.37,13.32h-63.03v-90.47h63.03c11.82,0,21.94,4.38,30.37,13.15Z"/>
      <path d="M1400.18,286.92V79.87h-21.67v495.65h21.67v-207.05l117.52,207.05h23.31V79.87h-23.31l-117.52,207.05ZM1519.35,327.12v207.05l-117.03-206.48,117.03-206.48v205.91Z"/>
      <path d="M1712.7,79.87v62.1h-93.56l-37.26-62.1h-25.61l148.69,247.82-148.69,247.82h25.61l37.26-62.1h93.56v62.1h21.5V79.87h-21.5ZM1712.7,164.8v133.02l-79.93-133.02h79.93ZM1712.7,490.59h-79.93l79.93-133.02v133.02Z"/>
    </g>
  </g>
</svg>