<?xml version="1.0" encoding="UTF-8"?>
<svg version="1.1" xmlns="http://www.w3.org/2000/svg" width="3033" height="433">
<path d="M0 0 C10.63895869 3.11125612 20.42952338 3.88402094 31.45694804 3.79100275 C33.24820296 3.79451633 35.03945471 3.80018871 36.83069682 3.80781794 C41.63229215 3.82189393 46.43330293 3.80517815 51.23484206 3.78153276 C56.2939606 3.76120875 61.3530599 3.76731418 66.41220927 3.76964045 C74.89824718 3.76958712 83.38406058 3.74997618 91.87003398 3.71776056 C101.64442607 3.68083124 111.41852513 3.67209434 121.19297791 3.67905807 C130.64954558 3.68538775 140.10601412 3.67456637 149.56256175 3.65509272 C153.56376136 3.6469741 157.56490991 3.64419883 161.56611705 3.64578485 C166.28435034 3.64667119 171.00231013 3.63224855 175.72047114 3.60655832 C177.43960945 3.5994675 179.15877701 3.59727816 180.87792659 3.60067606 C193.38998715 3.6206701 204.94291453 2.50510311 216.89737773 -1.51173162 C226.65257896 -4.56426976 236.19148745 -3.06691624 245.21378398 1.46483088 C262.65702401 11.42478778 272.15227123 27.99732073 277.37955546 47.08958673 C285.99996937 80.77870079 282.15162904 116.77662947 264.58438945 147.00486994 C254.30573396 163.79538092 239.89038439 176.1380761 220.76847148 181.26561213 C206.93076109 184.54997247 193.84980925 183.50870757 181.18253398 176.77342463 C176.32755095 173.71381282 171.77212892 170.16721012 167.64737773 166.17576838 C167.64737773 165.51576838 167.64737773 164.85576838 167.64737773 164.17576838 C166.98737773 164.17576838 166.32737773 164.17576838 165.64737773 164.17576838 C165.37063212 164.90288019 165.09388652 165.62999201 164.80875468 166.37913752 C163.71086602 169.02288666 162.47453627 171.43270429 161.06534648 173.92186213 C160.55141337 174.83177912 160.03748027 175.74169611 159.50797343 176.67918634 C158.95585185 177.64743341 158.40373027 178.61568048 157.83487773 179.61326838 C156.98059184 181.11591242 156.98059184 181.11591242 156.10904765 182.64891291 C151.93224885 189.97247381 147.71826116 197.27434831 143.45987773 204.55076838 C142.90775615 205.5013714 142.35563457 206.45197443 141.78678203 207.43138361 C141.27284892 208.30351496 140.75891582 209.17564631 140.22940898 210.07420588 C139.77799541 210.84425959 139.32658183 211.6143133 138.86148906 212.40770197 C137.64737773 214.17576838 137.64737773 214.17576838 135.64737773 215.17576838 C135.64737773 172.60576838 135.64737773 130.03576838 135.64737773 86.17576838 C154.78737773 86.17576838 173.92737773 86.17576838 193.64737773 86.17576838 C193.64737773 94.09576838 193.64737773 102.01576838 193.64737773 110.17576838 C185.06737773 110.17576838 176.48737773 110.17576838 167.64737773 110.17576838 C167.65252691 114.12519175 167.67633536 118.06832633 167.74503398 122.01658869 C167.77178911 124.00697942 167.76851477 125.99770175 167.76456523 127.98826838 C167.94024548 136.68444074 169.37403261 142.23905954 174.64737773 149.17576838 C175.36925273 150.22764338 176.09112773 151.27951838 176.83487773 152.36326838 C183.72181706 159.2502077 192.52708407 164.20784905 202.32706523 165.19529963 C214.10351937 165.09617122 224.91361899 158.96433772 233.33487773 151.11326838 C249.51878526 133.81525127 257.08807515 110.77842278 256.86222148 87.33983088 C255.90688393 63.04696183 249.90938294 37.34342121 231.64737773 20.17576838 C226.89619294 16.1174647 222.7861455 14.95878689 216.64737773 15.17576838 C209.78339824 16.08745914 203.59303729 17.76131885 197.2440269 20.46138239 C183.48797897 25.96342937 168.74734949 24.86064059 154.20700908 24.58775568 C150.52588721 24.52543177 146.8445045 24.49877621 143.16300273 24.46873713 C135.99043348 24.40514676 128.81912634 24.30329312 121.64737773 24.17576838 C121.70631659 61.51876581 121.78090975 98.86170092 121.87636401 136.2046235 C121.88763156 140.6178564 121.89877011 145.03108963 121.9098289 149.44432306 C121.91313443 150.76216158 121.91313443 150.76216158 121.91650673 152.1066231 C121.95183523 166.31381442 121.97672444 180.52100569 121.99772475 194.72822459 C122.01952228 209.31678732 122.0526101 223.90529327 122.09607929 238.49380767 C122.12252804 247.48858066 122.14027325 256.48328297 122.14672377 265.47809289 C122.15199846 271.65438657 122.16828485 277.83059147 122.19304339 284.0068375 C122.20698747 287.56498329 122.21625599 291.12297041 122.21238589 294.68114519 C122.20830387 298.55183603 122.22750346 302.42222515 122.24865031 306.29286432 C122.24380274 307.39991429 122.23895516 308.50696426 122.23396069 309.64756119 C122.37272894 325.13595253 125.83489079 338.84268297 136.60831523 350.26170588 C141.53238965 354.88392133 146.76189426 357.30304164 153.64737773 357.17576838 C158.03783127 356.63155805 161.64422161 355.81414045 165.39737773 353.42576838 C166.13987773 353.01326838 166.88237773 352.60076838 167.64737773 352.17576838 C170.45987773 352.98826838 170.45987773 352.98826838 172.64737773 354.17576838 C173.23333679 358.27748177 173.56716315 360.8011164 171.21769023 364.31248713 C164.02197563 371.89833083 155.33522036 376.16680238 144.91129375 376.51976252 C133.42648905 376.68152033 124.2566584 374.66792151 115.33487773 366.92576838 C113.75172948 365.36308085 112.18818306 363.78022143 110.64737773 362.17576838 C109.60130351 361.17610041 109.60130351 361.17610041 108.53409648 360.15623713 C104.24844042 355.80400777 101.21028573 351.05214776 98.39737773 345.67576838 C98.08010722 345.09045343 97.76283671 344.50513849 97.43595195 343.90208673 C89.5428317 327.91053386 90.07767257 310.54173463 90.18311524 293.17792785 C90.20059795 289.55788159 90.19452904 285.9378586 90.19150615 282.31778193 C90.18942176 276.06523902 90.20183424 269.81286474 90.2244575 263.56036425 C90.2571442 254.52063634 90.26740144 245.4809889 90.27240947 236.44120831 C90.28113617 221.77024412 90.30768 207.09936954 90.34561992 192.42845392 C90.3824083 178.18789854 90.41068652 163.94736762 90.42765117 149.70677423 C90.42870206 148.82708984 90.42975295 147.94740545 90.43083569 147.04106396 C90.43605633 142.6273798 90.44111105 138.21369548 90.44608331 133.80001104 C90.48746349 97.25853359 90.5578398 60.717158 90.64737773 24.17576838 C89.5831383 24.21454599 89.5831383 24.21454599 88.49739909 24.254107 C81.71996573 24.49509113 74.94217602 24.70349136 68.1627233 24.87779284 C64.67949135 24.96843098 61.19746967 25.07044623 57.71549296 25.201159 C41.26317081 25.80978487 26.98847354 25.59514402 11.64737773 19.17576838 C3.55062044 16.26730655 -5.2320188 14.04641557 -13.67684102 16.98436213 C-27.03371371 24.56812677 -34.50807155 40.67859939 -38.76033711 54.84642267 C-45.83571395 80.52776218 -46.28724089 109.18543462 -33.29500508 133.12449884 C-30.8586424 137.29854578 -28.17301412 141.25285971 -25.35262227 145.17576838 C-24.8498879 145.88346369 -24.34715352 146.591159 -23.82918477 147.32029963 C-16.744239 156.39148742 -4.97755574 163.9920568 6.58487773 165.41404963 C16.88030394 165.78452898 25.64274183 162.12299152 33.38565898 155.46483088 C37.05563529 151.75048525 39.97022744 147.64782624 42.64737773 143.17576838 C42.99719707 142.60729181 43.3470164 142.03881525 43.70743632 141.45311213 C44.96947423 138.39537457 44.9745141 135.74458637 45.06144023 132.44139338 C45.1001121 131.14588556 45.13878398 129.85037775 45.17862773 128.51561213 C45.2100804 127.15233554 45.2413278 125.7890542 45.27237773 124.42576838 C45.31058242 123.04683809 45.3496356 121.66793104 45.38956523 120.28904963 C45.48385531 116.91817916 45.56670613 113.54699225 45.64737773 110.17576838 C37.06737773 110.17576838 28.48737773 110.17576838 19.64737773 110.17576838 C19.64737773 102.25576838 19.64737773 94.33576838 19.64737773 86.17576838 C38.78737773 86.17576838 57.92737773 86.17576838 77.64737773 86.17576838 C77.64737773 128.74576838 77.64737773 171.31576838 77.64737773 215.17576838 C74.52159855 212.0499892 72.89406127 210.21148213 70.87003398 206.52733088 C70.36254619 205.61411066 69.85505839 204.70089045 69.33219218 203.75999689 C68.79682841 202.78345148 68.26146464 201.80690607 67.70987773 200.80076838 C66.56044934 198.73867038 65.40935969 196.67749765 64.25675273 194.61717463 C63.66571757 193.55901545 63.07468242 192.50085627 62.4657371 191.41063166 C59.51292345 186.157573 56.50052787 180.94088213 53.45987773 175.73826838 C52.63145366 174.29991632 52.63145366 174.29991632 51.78629375 172.83250666 C51.27252177 171.95707209 50.7587498 171.08163752 50.22940898 170.17967463 C49.77799541 169.4043841 49.32658183 168.62909357 48.86148906 167.83030939 C48.26050395 167.01131159 48.26050395 167.01131159 47.64737773 166.17576838 C44.71970406 166.17576838 43.954934 167.70005004 41.89737773 169.73826838 C31.73665806 178.99471687 19.09545191 183.64801158 5.41300273 183.42967463 C-4.01333545 182.79408128 -13.0160992 180.65645902 -21.35262227 176.17576838 C-22.5495168 175.54541681 -22.5495168 175.54541681 -23.77059102 174.90233088 C-44.50412447 163.26583613 -56.39036259 142.00694734 -63.32527852 119.91795588 C-72.3997418 86.86344706 -70.16423975 52.0235711 -53.33602071 21.87498713 C-45.99653895 9.19306234 -34.39814622 1.2309133 -20.41512227 -2.63673162 C-13.27383089 -3.07395355 -6.82851996 -2.03120247 0 0 Z " fill="#17468F" transform="translate(103.3526222705841,30.82423162460327)"/>
<path d="M0 0 C0.64324219 0.03552979 1.28648438 0.07105957 1.94921875 0.10766602 C14.74595519 0.79108659 27.22839789 1.13060084 40 0 C39.93433838 1.01368652 39.86867676 2.02737305 39.80102539 3.07177734 C38.98765307 16.25106425 38.68597774 29.42456216 38.4375 42.625 C38.293125 50.00875 38.14875 57.3925 38 65 C60.77 65 83.54 65 107 65 C106.4522824 43.3260322 105.87701215 21.66304604 105 0 C105.64324219 0.03552979 106.28648438 0.07105957 106.94921875 0.10766602 C109.96572105 0.26876488 112.98277275 0.41562776 116 0.5625 C117.010625 0.61857422 118.02125 0.67464844 119.0625 0.73242188 C127.77453658 1.14079859 136.31786355 0.6680174 145 0 C144.93941406 0.95060303 144.87882812 1.90120605 144.81640625 2.88061523 C143.21814081 28.76776961 142.75 54.63338027 142.75 80.5625 C142.75 81.35019524 142.75 82.13789047 142.75 82.94945526 C142.76054511 108.69475855 143.48198535 134.28862685 145 160 C131.8 160 118.6 160 105 160 C105.144375 156.761875 105.28875 153.52375 105.4375 150.1875 C106.35908845 127.80584594 106.58964117 105.39386732 107 83 C84.23 83 61.46 83 38 83 C38.144375 92.549375 38.28875 102.09875 38.4375 111.9375 C38.48060303 114.91515381 38.52370605 117.89280762 38.56811523 120.96069336 C38.60631877 123.37874808 38.64479441 125.79679852 38.68359375 128.21484375 C38.70006958 129.42338013 38.71654541 130.6319165 38.73352051 131.8770752 C38.88979246 141.29363021 39.44551741 150.57379605 40 160 C26.8 160 13.6 160 0 160 C0.144375 156.535 0.28875 153.07 0.4375 149.5 C2.39835098 99.6032284 2.0544148 49.88726879 0 0 Z " fill="#78787B" transform="translate(1267,211)"/>
<path d="M0 0 C24.82591616 -2.42737549 24.82591616 -2.42737549 31.44140625 2.8359375 C34.29927243 5.71650729 36.65837139 8.90807078 38.87597656 12.29980469 C40.27887787 14.42183004 41.90115804 16.25816654 43.625 18.125 C44.14320312 18.72570312 44.66140625 19.32640625 45.1953125 19.9453125 C47.58781737 22.66924662 50.04404204 25.3334491 52.5 28 C55.51928633 31.27853077 58.52202194 34.56581022 61.4375 37.9375 C65.01937309 42.069109 68.73837958 46.06929927 72.45458984 50.07958984 C76.25136652 54.17963479 80.00005551 58.31988173 83.73046875 62.48046875 C87.65464446 66.83691166 91.62602828 71.15013444 95.59277344 75.46777344 C97.44033968 77.47945382 99.2859492 79.49292291 101.13134766 81.5065918 C102.03972938 82.49777464 102.94825673 83.48882405 103.85693359 84.47973633 C106.25050959 87.09001291 108.64217008 89.70201349 111.03125 92.31640625 C111.52818359 92.85974609 112.02511719 93.40308594 112.53710938 93.96289062 C113.9210275 95.47614689 115.30428383 96.99000832 116.6875 98.50390625 C118.41914125 100.37302577 120.19830785 102.19830785 122 104 C122 69.68 122 35.36 122 0 C128.93 0 135.86 0 143 0 C142.9292627 1.91385498 142.85852539 3.82770996 142.78564453 5.79956055 C141.93150157 30.82170259 141.84460966 55.83053843 141.86962891 80.86547852 C141.8753689 86.68593045 141.87200175 92.50633666 141.86605644 98.32678699 C141.86240871 102.90073479 141.86360783 107.47467208 141.86618423 112.04862022 C141.86683962 114.19352919 141.86607522 116.33843918 141.86370468 118.48334694 C141.85142293 132.68397518 142.2373258 146.81953278 143 161 C141.34062613 161.11346353 139.68118382 161.2259264 138.02171326 161.33796692 C137.09761878 161.40070203 136.1735243 161.46343714 135.22142696 161.52807331 C121.97197624 162.34162058 121.97197624 162.34162058 117.55859375 158.83203125 C115.07587628 156.01517653 113.02264937 153.15986509 111 150 C109.83939373 148.62271401 108.65392292 147.26574655 107.4375 145.9375 C106.88964844 145.30714844 106.34179688 144.67679688 105.77734375 144.02734375 C102.94567053 140.79736924 100.05797493 137.61809344 97.1796875 134.4296875 C95.30854906 132.3439382 93.46075169 130.24182372 91.625 128.125 C88.21385274 124.2084976 84.70407347 120.3849239 81.18798828 116.56298828 C78.2723894 113.39256068 75.37632295 110.20622379 72.5 107 C67.83588961 101.80474537 63.11765969 96.66007284 58.39404297 91.51904297 C57.04322497 90.04710084 55.69539027 88.57242264 54.34765625 87.09765625 C48.73226284 80.95453131 43.07827292 74.8496233 37.38549805 68.77807617 C31.87619635 62.89375707 26.44829769 56.94359748 21 51 C21 87.3 21 123.6 21 161 C14.07 161 7.14 161 0 161 C0.09087891 158.20523193 0.09087891 158.20523193 0.18359375 155.35400391 C0.38661445 149.07981677 0.58569264 142.80551337 0.78230286 136.53112221 C0.9012168 132.74056441 1.02153653 128.950064 1.14550781 125.15966797 C1.96028216 100.19521575 2.30692814 75.28588041 1.5625 50.3125 C1.51741282 48.70882853 1.47257785 47.10514995 1.42797852 45.50146484 C1.00092158 30.33285635 0.51345501 15.16590901 0 0 Z " fill="#78787B" transform="translate(1806,211)"/>
<path d="M0 0 C0.73045532 -0.00626404 1.46091064 -0.01252808 2.21350098 -0.01898193 C22.766877 -0.13034013 42.52188144 3.67436071 60.3125 14.4375 C60.14121582 15.03175781 59.96993164 15.62601563 59.79345703 16.23828125 C59.00670124 18.97094282 58.22208776 21.7042152 57.4375 24.4375 C57.03337891 25.83935547 57.03337891 25.83935547 56.62109375 27.26953125 C55.08203918 32.63745328 53.63072116 38.0110362 52.3125 43.4375 C51.3225 43.4375 50.3325 43.4375 49.3125 43.4375 C47.8046875 41.3125 47.8046875 41.3125 46.1875 38.4375 C38.81896735 26.45401997 28.02587312 19.8340568 14.4375 16.5625 C-0.78505392 13.77503673 -17.34754458 14.88823354 -30.51953125 23.7578125 C-44.27415237 34.41454598 -50.58441347 49.22627283 -53.27954102 66.08349609 C-53.99535392 71.96849772 -54.02691136 77.82794066 -54 83.75 C-53.99508545 85.02875 -53.9901709 86.3075 -53.98510742 87.625 C-53.75091022 106.47607311 -49.80879363 124.47368413 -36.625 138.65625 C-26.42548564 148.41864232 -13.88411855 151.83697507 -0.0625 151.8125 C0.79835205 151.81233887 1.6592041 151.81217773 2.54614258 151.81201172 C10.46782038 151.67268757 17.92555637 150.39227745 25.3125 147.4375 C26.90978407 144.24293187 26.45427167 140.78128653 26.4453125 137.2734375 C26.44674759 136.03613388 26.44674759 136.03613388 26.44821167 134.77383423 C26.44889375 133.01686528 26.44703755 131.25989383 26.44287109 129.50292969 C26.43761815 126.87168335 26.44276476 124.24061531 26.44921875 121.609375 C26.44855612 119.8932288 26.44727117 118.17708271 26.4453125 116.4609375 C26.44834885 115.31460342 26.44834885 115.31460342 26.45144653 114.14511108 C26.41900863 106.18891152 25.81196436 98.42892969 25.3125 90.4375 C37.5225 90.4375 49.7325 90.4375 62.3125 90.4375 C62.3125 112.2175 62.3125 133.9975 62.3125 156.4375 C35.741102 163.36916904 35.741102 163.36916904 26.625 164.75 C25.21444336 164.98299805 25.21444336 164.98299805 23.77539062 165.22070312 C-4.6835286 169.76554766 -36.86788778 170.1087867 -61.6875 153.4375 C-68.30490594 148.24449516 -74.72118996 142.23983982 -79.6875 135.4375 C-80.41839844 134.43976563 -80.41839844 134.43976563 -81.1640625 133.421875 C-94.197824 113.77097305 -96.12170363 87.51384703 -92.375 64.7734375 C-89.35011156 50.09585382 -83.6429128 37.66924777 -73.6875 26.4375 C-73.16800781 25.82390625 -72.64851563 25.2103125 -72.11328125 24.578125 C-63.16265664 14.74821989 -50.20740883 8.3241256 -37.6875 4.4375 C-37.01170898 4.22722168 -36.33591797 4.01694336 -35.63964844 3.80029297 C-23.91448864 0.38338553 -12.11964243 0.04856605 0 0 Z " fill="#78787B" transform="translate(2240.6875,207.5625)"/>
<path d="M0 0 C2.24228292 0.00314554 4.48322206 -0.02034044 6.7253418 -0.0456543 C20.3795023 -0.10659994 33.69604696 1.6519823 46.63745117 6.19067383 C47.35223633 6.42141602 48.06702148 6.6521582 48.8034668 6.88989258 C54.05036939 8.67221916 58.49434354 11.21474173 63.07495117 14.31567383 C62.03477631 20.08391623 60.4073084 25.70979229 58.89135742 31.36645508 C57.83564582 35.33318209 56.80402701 39.27261691 56.07495117 43.31567383 C53.21327365 42.97900588 52.26104103 42.54210485 50.39916992 40.27661133 C49.85905273 39.42325195 49.31893555 38.56989258 48.76245117 37.69067383 C41.1231685 26.38453548 31.62755383 19.60670402 18.13745117 16.37817383 C2.87958749 13.65777953 -13.63194066 14.68641886 -26.92504883 23.31567383 C-41.69357748 34.01432743 -47.4550641 50.40076604 -50.33129883 67.76879883 C-53.01597676 89.69366861 -51.08168297 114.88931258 -37.92504883 133.31567383 C-37.18254883 134.36754883 -36.44004883 135.41942383 -35.67504883 136.50317383 C-25.67699704 146.72845407 -13.44823052 151.33026959 0.69970703 151.55615234 C9.65357059 151.59112487 17.43837092 150.85275144 26.07495117 148.31567383 C27.40725978 147.97826806 28.74042836 147.64421262 30.07495117 147.31567383 C30.21123704 128.26919905 29.85579927 109.34884626 29.07495117 90.31567383 C41.28495117 90.31567383 53.49495117 90.31567383 66.07495117 90.31567383 C65.74495117 112.09567383 65.41495117 133.87567383 65.07495117 156.31567383 C44.00458141 162.16855432 44.00458141 162.16855432 36.63745117 163.50317383 C35.76531982 163.66333984 34.89318848 163.82350586 33.99462891 163.98852539 C3.50453793 169.40139158 -31.63772026 171.55817256 -58.40551758 153.21801758 C-76.81794934 139.31591794 -86.60814773 120.93154173 -89.92504883 98.31567383 C-91.26696378 73.21983107 -89.30162937 51.04195934 -73.92504883 30.31567383 C-73.43133789 29.64793945 -72.93762695 28.98020508 -72.42895508 28.29223633 C-55.24591869 6.77693297 -26.15827615 -0.07632913 0 0 Z " fill="#78787B" transform="translate(2062.925048828125,207.684326171875)"/>
<path d="M0 0 C-0.17015625 0.58523437 -0.3403125 1.17046875 -0.515625 1.7734375 C-3.05402177 10.76584308 -5.02176229 19.87198946 -7 29 C-10.04137819 28.42057725 -10.80455011 28.23733201 -12.859375 25.7421875 C-13.48328125 24.79601562 -14.1071875 23.84984375 -14.75 22.875 C-20.77535157 14.29276492 -27.29466267 8.99631537 -37 5 C-37.76183594 4.67902344 -38.52367187 4.35804688 -39.30859375 4.02734375 C-54.06153701 -1.04766873 -71.84166187 0.73300826 -85.72265625 7.28515625 C-97.46422651 13.64295975 -104.56229722 24.53221999 -108.67285156 37.04882812 C-110.87254558 44.51593523 -112.71472187 52.20239768 -113 60 C-113.0515625 61.27875 -113.103125 62.5575 -113.15625 63.875 C-113.69569452 84.01799286 -111.05618878 106.57488142 -97.0390625 122.18359375 C-86.54765036 132.20156671 -74.01593579 136.40836331 -59.75 136.3125 C-58.92878662 136.31048584 -58.10757324 136.30847168 -57.26147461 136.30639648 C-50.17447165 136.19080614 -43.81083549 135.00074772 -37 133 C-35.66769139 132.66259424 -34.33452282 132.3285388 -33 132 C-32.87877957 113.29288956 -33.11510854 94.69333213 -34 76 C-21.79 76 -9.58 76 3 76 C2.67 97.45 2.34 118.9 2 141 C-24.66845976 147.9569895 -24.66845976 147.9569895 -34.0625 149.3125 C-35.63040283 149.54984863 -35.63040283 149.54984863 -37.22998047 149.79199219 C-44.81418463 150.90728165 -52.33066475 151.78276513 -60 152 C-61.19109375 152.03996094 -62.3821875 152.07992187 -63.609375 152.12109375 C-89.53936744 152.5783654 -112.80053429 146.34291862 -131.9609375 128.13671875 C-148.25832572 110.91753256 -152.69343371 87.18708727 -152.25 64.296875 C-151.41100067 41.12371354 -142.67147173 21.72652948 -125.6953125 5.84375 C-92.86892813 -22.13939733 -36.19162582 -19.94652105 0 0 Z " fill="#78787B" transform="translate(877,222)"/>
<path d="M0 0 C13.53 0 27.06 0 41 0 C40.0625 11.5625 40.0625 11.5625 39.77368164 15.04125977 C38.2074644 34.90512648 37.81341245 54.77167221 37.81469727 74.69140625 C37.81248642 78.52354666 37.7941706 82.35540917 37.77539062 86.1875 C36.99432996 113.62467952 36.99432996 113.62467952 48 138 C57.23783064 146.39240417 67.24996165 148.3503706 79.4921875 148.2109375 C91.27119165 147.50262322 101.51122574 143.96190951 109.8125 135.375 C134.39126135 104.88342342 120.48899171 37.01207955 119 0 C126.92 0 134.84 0 143 0 C143.08148779 6.68199911 143.00919687 13.28961709 142.63563538 19.95838928 C142.0923178 29.89559311 141.92907934 39.80254014 141.97265625 49.75390625 C141.97815994 51.03928284 141.98366364 52.32465942 141.98933411 53.64898682 C142.01682186 58.95348597 142.05159026 64.25787034 142.09594727 69.56225586 C142.5431316 127.00255524 142.5431316 127.00255524 125.5 145.75 C124.675 146.4925 123.85 147.235 123 148 C122.5359375 148.46792969 122.071875 148.93585938 121.59375 149.41796875 C105.94777706 164.33533021 82.30441037 164.61641673 62.08886719 164.13623047 C43.92876579 163.33530282 26.52251498 157.55792825 13.78515625 144.1875 C-4.51451405 121.76339635 1.75878932 80.71278958 1.47393799 53.44244385 C1.42224199 48.52337101 1.36722338 43.60435526 1.30812073 38.68536568 C1.2822939 36.43096461 1.26105262 34.17655471 1.2401123 31.92210388 C1.11392953 21.23765374 0.56289786 10.69505932 0 0 Z " fill="#78787B" transform="translate(1631,211)"/>
<path d="M0 0 C11.55 0 23.1 0 35 0 C35 23.1 35 46.2 35 70 C37.97 67.69 40.94 65.38 44 63 C54.55298726 57.65498048 66.92972243 57.37498936 78.453125 59.6953125 C89.76085861 63.45402842 97.65436503 71.29285607 103.1875 81.625 C111.26975997 98.91382381 111.70689784 120.33762186 106.25390625 138.55859375 C101.38131621 151.9316524 93.91804973 163.26657212 81 170 C67.73529485 175.82672783 53.7498901 177.04600333 40 172 C36.77358676 170.25744398 33.88712557 168.25408779 31 166 C29.5459375 164.88625 29.5459375 164.88625 28.0625 163.75 C26 162 26 162 24 160 C15.89174363 164.36359688 15.89174363 164.36359688 8.625 169.9375 C5.4352736 172.4437136 3.94070779 172.17912308 0 172 C0.02734726 171.44909195 0.05469452 170.8981839 0.08287048 170.33058167 C0.77576873 156.20188645 1.26977472 142.07995982 1.5625 127.9375 C1.58334656 126.94766113 1.60419312 125.95782227 1.62567139 124.93798828 C2.19110072 97.60981257 2.13658705 70.32765292 1.5625 43 C1.5429425 42.05084717 1.52338501 41.10169434 1.50323486 40.1237793 C1.21980319 26.73461838 0.68135039 13.37507998 0 0 Z M40.75 78.875 C32.69881198 89.18578575 32.79418155 103.93461794 32.75976562 116.37597656 C32.75015073 118.467216 32.71910708 120.55743157 32.6875 122.6484375 C32.5936567 134.52754493 32.81679509 148.6007151 41 158 C45.43807175 162.04647718 49.71710134 162.29941856 55.50390625 162.20703125 C60.67185897 161.77839041 63.75707455 159.48615855 67.1875 155.8125 C75.96446258 144.76681863 75.33565848 128.79482885 75.25 115.375 C75.25773437 114.15554688 75.26546875 112.93609375 75.2734375 111.6796875 C75.2500686 100.74304368 75.21710005 87.16547124 67.6171875 78.40625 C63.74509948 74.91934351 59.72436359 73.35846889 54.625 72.6875 C49.19906613 73.33344451 44.63435928 74.91197015 40.75 78.875 Z " fill="#78787B" transform="translate(2755,198)"/>
<path d="M0 0 C6.6 0 13.2 0 20 0 C20.51159668 1.36987061 21.02319336 2.73974121 21.55029297 4.15112305 C38.92301654 50.62375154 56.97127348 96.80624312 76.59765625 142.37890625 C76.88298218 143.0418721 77.16830811 143.70483795 77.46228027 144.38789368 C78.80097223 147.49591337 80.14514307 150.60127927 81.49755859 153.70336914 C81.9611377 154.77321045 82.4247168 155.84305176 82.90234375 156.9453125 C83.30960693 157.87875488 83.71687012 158.81219727 84.13647461 159.77392578 C85 162 85 162 85 164 C71.14 164 57.28 164 43 164 C40.86099979 157.6288351 38.7238125 151.25712273 36.59130859 144.88378906 C35.86484765 142.71448241 35.13731161 140.54553549 34.40869141 138.37695312 C33.36340023 135.2652564 32.32194411 132.15229923 31.28125 129.0390625 C30.95314331 128.065065 30.62503662 127.0910675 30.2869873 126.08755493 C29.98667603 125.18677216 29.68636475 124.28598938 29.37695312 123.35791016 C29.11047974 122.56293121 28.84400635 121.76795227 28.56945801 120.94888306 C28 119 28 119 28 117 C21.273934 116.97459971 14.54788043 116.95711195 7.82177734 116.94506836 C5.53466327 116.94004636 3.24755239 116.93322753 0.96044922 116.92456055 C-2.33106273 116.91240155 -5.62253215 116.90675027 -8.9140625 116.90234375 C-9.93303619 116.89718246 -10.95200989 116.89202118 -12.00186157 116.88670349 C-16.78394261 116.88632746 -21.29863529 116.9935597 -26 118 C-26.34256836 119.00264893 -26.68513672 120.00529785 -27.03808594 121.03833008 C-28.32672048 124.80904464 -29.61677441 128.57927237 -30.90722656 132.34936523 C-31.4622928 133.97163153 -32.0169897 135.59402425 -32.57128906 137.21655273 C-35.63229387 146.17579333 -38.72341082 155.11662593 -42 164 C-49.59 164 -57.18 164 -65 164 C-63.76515031 160.29545092 -62.59028896 156.88709013 -61.0390625 153.35131836 C-60.65615051 152.47416168 -60.27323853 151.597005 -59.87872314 150.69326782 C-59.46499451 149.75163788 -59.05126587 148.81000793 -58.625 147.83984375 C-57.72193098 145.76946143 -56.81928014 143.69889666 -55.91699219 141.62817383 C-55.20416077 139.99448349 -55.20416077 139.99448349 -54.47692871 138.32778931 C-34.67573759 92.87416245 -16.53425401 46.74418765 0 0 Z M1 49 C-4.5143652 60.69590052 -9.48442919 72.53672598 -14.0625 84.625 C-14.30964752 85.27463715 -14.55679504 85.92427429 -14.81143188 86.59359741 C-17.70806702 93.12614937 -17.70806702 93.12614937 -19 100 C-11.94339616 101.09229986 -5.00681714 101.14906687 2.125 101.125 C3.85556641 101.13080078 3.85556641 101.13080078 5.62109375 101.13671875 C6.73871094 101.13542969 7.85632812 101.13414062 9.0078125 101.1328125 C10.01473145 101.13168457 11.02165039 101.13055664 12.05908203 101.12939453 C15.10890305 100.99520848 18.00182832 100.56149505 21 100 C15.46357958 82.60097868 9.31105569 65.73828782 2 49 C1.67 49 1.34 49 1 49 Z " fill="#78787B" transform="translate(2375,208)"/>
<path d="M0 0 C8.62427775 -0.06999521 17.2484337 -0.12305951 25.87292671 -0.15543652 C29.87909211 -0.17098815 33.88506095 -0.19203019 37.89111328 -0.22631836 C41.7685421 -0.25929198 45.64578375 -0.27693161 49.52334213 -0.28463173 C50.99107681 -0.29010799 52.45880309 -0.30079806 53.92645645 -0.31719017 C69.57842877 -0.48480205 85.71863585 1.32815883 97.9375 12.125 C106.92378146 21.99013539 107.54333338 35.39187937 107 48 C105.70960352 59.77690961 100.66727251 70.63029912 91.375 78.1875 C74.74346877 89.75726085 55.36968672 89.46926188 36 89 C36.4446336 108.81692189 37.17884172 128.52946756 38.83227539 148.28808594 C39.01156893 151.1870563 39 154.09549051 39 157 C26.13 157 13.26 157 0 157 C0.2165625 152.84664063 0.2165625 152.84664063 0.4375 148.609375 C2.90251428 99.03625417 2.566073 49.56069713 0 0 Z M38 14 C36.79551924 17.61344227 36.63747722 21.06498343 36.44140625 24.8359375 C36.39915421 25.62616302 36.35690216 26.41638855 36.31336975 27.2305603 C35.83867771 37.02623386 35.89136809 46.82066264 35.9375 56.625 C35.94253345 58.51822796 35.94709304 60.41145724 35.95117188 62.3046875 C35.96201198 66.8698253 35.97917088 71.43489731 36 76 C38.06432993 75.8784467 40.12802842 75.74614191 42.19140625 75.609375 C43.91532593 75.50061035 43.91532593 75.50061035 45.67407227 75.38964844 C52.95885202 74.53620144 58.92128368 71.196826 64 66 C70.54547656 56.538222 71.07769443 43.96576236 69.3125 32.9375 C67.72887435 25.76657542 64.22020563 20.04313366 58 16 C54.44457208 14.36967688 51.32873432 13.64263254 47.4375 13.3125 C46.04337891 13.18294922 46.04337891 13.18294922 44.62109375 13.05078125 C42.12609797 13.00244303 40.30750953 13.05292693 38 14 Z " fill="#78787B" transform="translate(412,213)"/>
<path d="M0 0 C6.27 0 12.54 0 19 0 C20.51013672 4.03734375 20.51013672 4.03734375 22.05078125 8.15625 C38.94152733 53.21340934 56.58674295 97.97073943 75.50390625 142.21875 C75.76996674 142.84226349 76.03602722 143.46577698 76.31015015 144.10818481 C77.51729136 146.93612093 78.73023299 149.76122108 79.95507812 152.58154297 C80.56706055 154.00684326 80.56706055 154.00684326 81.19140625 155.4609375 C81.54404541 156.27353027 81.89668457 157.08612305 82.26000977 157.92333984 C83 160 83 160 83 163 C69.47 163 55.94 163 42 163 C37.05 147.82 32.1 132.64 27 117 C9.51 117 -7.98 117 -26 117 C-30.47675208 129.8922525 -30.47675208 129.8922525 -34.94458008 142.78759766 C-35.51090952 144.41319778 -36.07753997 146.03869309 -36.64453125 147.6640625 C-36.93146851 148.49703857 -37.21840576 149.33001465 -37.51403809 150.18823242 C-37.79791382 150.9996167 -38.08178955 151.81100098 -38.37426758 152.64697266 C-38.73733757 153.69288071 -38.73733757 153.69288071 -39.10774231 154.75991821 C-40.23181492 157.58198925 -41.64149905 160.28299809 -43 163 C-50.26 163 -57.52 163 -65 163 C-63.54628561 158.63885682 -62.03831441 154.68458311 -60.15625 150.5234375 C-59.57266486 149.22365611 -58.98951676 147.92367843 -58.40673828 146.62353516 C-58.09738342 145.93511536 -57.78802856 145.24669556 -57.46929932 144.53741455 C-36.25793023 97.21686829 -17.88799877 48.65535665 0 0 Z M0 49 C-8.84998867 69.44887459 -8.84998867 69.44887459 -16.8125 90.25 C-17.04791504 90.91443115 -17.28333008 91.5788623 -17.52587891 92.26342773 C-18.45581911 94.99122787 -19 97.09197645 -19 100 C-6.13 100 6.74 100 20 100 C19.18693471 95.12160828 18.17648914 91.39838008 16.453125 86.8359375 C16.20004578 86.16261383 15.94696655 85.48929016 15.68621826 84.79556274 C15.15081488 83.37428959 14.6127811 81.95400485 14.07226562 80.53466797 C13.26110534 78.404168 12.45794782 76.27079491 11.65625 74.13671875 C9.24732306 67.74557048 6.78913803 61.37344925 4.234375 55.0390625 C3.84991211 54.08467285 3.46544922 53.1302832 3.06933594 52.14697266 C2.19140195 49.84518537 2.19140195 49.84518537 0 49 Z " fill="#78787B" transform="translate(951,208)"/>
<path d="M0 0 C6.27 0 12.54 0 19 0 C19.92296875 2.51238281 20.8459375 5.02476562 21.796875 7.61328125 C38.02203614 51.65109629 55.11325016 95.31217474 73.76013184 138.38304138 C74.63219278 140.39755146 75.50269618 142.41272908 76.37304688 144.42797852 C77.42426784 146.86155504 78.4839512 149.29080804 79.54882812 151.71850586 C80.00708984 152.77432861 80.46535156 153.83015137 80.9375 154.91796875 C81.33839844 155.83344482 81.73929688 156.7489209 82.15234375 157.69213867 C83 160 83 160 83 163 C69.47 163 55.94 163 42 163 C40.081875 157.286875 38.16375 151.57375 36.1875 145.6875 C35.58832764 143.90819092 34.98915527 142.12888184 34.37182617 140.2956543 C33.88696457 138.84692357 33.40233108 137.39811648 32.91796875 135.94921875 C32.67421509 135.2281897 32.43046143 134.50716064 32.17932129 133.76428223 C30.21610096 127.87657179 28.64092194 122.01671377 27 116 C9.18 116 -8.64 116 -27 116 C-27.66 118.97 -28.32 121.94 -29 125 C-29.92548846 128.00259229 -30.87673197 130.96898604 -31.8984375 133.9375 C-32.17466949 134.74364746 -32.45090149 135.54979492 -32.73550415 136.38037109 C-33.31590988 138.06528407 -33.89922395 139.74919784 -34.48535156 141.43212891 C-35.38060101 144.01616669 -36.25273099 146.60734766 -37.125 149.19921875 C-37.69390527 150.84163395 -38.26416883 152.48357943 -38.8359375 154.125 C-39.09337738 154.90093506 -39.35081726 155.67687012 -39.61605835 156.47631836 C-40.38427734 158.6328125 -40.38427734 158.6328125 -42 162 C-44.86994491 163.02800701 -47.51431005 163.11814655 -50.546875 163.09765625 C-51.39121094 163.09443359 -52.23554687 163.09121094 -53.10546875 163.08789062 C-53.97816406 163.07951172 -54.85085938 163.07113281 -55.75 163.0625 C-57.08224609 163.05573242 -57.08224609 163.05573242 -58.44140625 163.04882812 C-60.62767329 163.037074 -62.81380179 163.02064249 -65 163 C-62.71261588 155.49836389 -59.6153246 148.44626292 -56.39331055 141.3097229 C-37.41895649 99.18023517 -20.91790025 55.97522553 -4.94604492 12.63452148 C-4.68638443 11.93067322 -4.42672394 11.22682495 -4.15919495 10.50164795 C-3.46127482 8.60853264 -2.76500139 6.71481049 -2.06884766 4.82104492 C-1 2 -1 2 0 0 Z M0 49 C-7.42663286 65.80480326 -14.18371775 82.55115324 -20 100 C-6.8 100 6.4 100 20 100 C17.52033462 90.83894255 17.52033462 90.83894255 14.4765625 81.96875 C14.0125 80.74542969 13.5484375 79.52210938 13.0703125 78.26171875 C12.8321582 77.64216309 12.59400391 77.02260742 12.34863281 76.38427734 C11.62681893 74.50473634 10.91441449 72.62182677 10.203125 70.73828125 C7.39008755 63.36377146 4.37177155 56.13676332 1 49 C0.67 49 0.34 49 0 49 Z " fill="#78787B" transform="translate(1170,208)"/>
<path d="M0 0 C11.88 0 23.76 0 36 0 C35.83701416 3.02115967 35.67402832 6.04231934 35.50610352 9.1550293 C34.95245753 20.28180818 34.87041815 31.38143302 34.90234375 42.51953125 C34.9042161 44.48491886 34.90563612 46.45030694 34.90663147 48.41569519 C34.91039243 53.51013551 34.92016522 58.60454587 34.93133545 63.69897461 C34.94169026 68.92886958 34.94615877 74.15876954 34.95117188 79.38867188 C34.96179544 89.59246085 34.97879134 99.79622791 35 110 C37.09362134 107.91653183 39.18586636 105.83171227 41.27734375 103.74609375 C41.86753296 103.15904663 42.45772217 102.57199951 43.0657959 101.96716309 C47.24499459 97.7967473 51.18808471 93.5086309 55 89 C55.91006252 87.9636164 56.82166595 86.9285849 57.734375 85.89453125 C58.23308105 85.32420166 58.73178711 84.75387207 59.24560547 84.16625977 C60.29384121 82.96792607 61.34761201 81.77441257 62.40673828 80.58569336 C65.07315521 77.52469271 67.33978251 74.57003033 69.2578125 70.984375 C73.51911614 63.26214335 73.51911614 63.26214335 77 61 C83.6591853 59.32093494 93.71213237 58.85606618 100 62 C98.64768813 65.02977429 97.14519457 67.08472613 94.76953125 69.390625 C94.1350708 70.01348389 93.50061035 70.63634277 92.84692383 71.27807617 C92.17556396 71.92881104 91.5042041 72.5795459 90.8125 73.25 C86.29748693 77.68867611 81.88663854 82.10664127 77.82421875 86.96875 C76.25493421 88.71613321 74.64597061 90.33952835 72.95703125 91.96875 C72.13561646 92.76502808 72.13561646 92.76502808 71.29760742 93.57739258 C70.206209 94.62800893 69.10641521 95.66999309 67.99731445 96.7019043 C64.87076149 99.71602383 63.2968394 101.645277 63 106 C63.98529699 108.48445136 63.98529699 108.48445136 65.65625 110.89453125 C66.25928955 111.838125 66.8623291 112.78171875 67.48364258 113.75390625 C68.14904053 114.76324219 68.81443848 115.77257812 69.5 116.8125 C70.88972955 118.97499915 72.27904055 121.13776733 73.66796875 123.30078125 C74.39345467 124.42025498 75.11920443 125.53955776 75.84521484 126.65869141 C79.22678517 131.90230929 82.51740761 137.20178354 85.8125 142.5 C89.24764584 148.00722367 92.68533364 153.51236127 96.1640625 158.9921875 C96.63739014 159.74048828 97.11071777 160.48878906 97.59838867 161.25976562 C98.46460524 162.62802457 99.33433068 163.99407112 100.20825195 165.35742188 C103 169.77603324 103 169.77603324 103 172 C90.46 172 77.92 172 65 172 C62.1228125 166.864375 62.1228125 166.864375 59.1875 161.625 C54.92336253 154.05629076 50.59602126 146.53591781 46.0625 139.125 C45.63928467 138.43229004 45.21606934 137.73958008 44.7800293 137.02587891 C41.635599 131.92843611 38.32727756 126.99091634 35 122 C35 138.5 35 155 35 172 C23.45 172 11.9 172 0 172 C0.15339844 168.25269531 0.30679688 164.50539063 0.46484375 160.64453125 C1.00120248 146.99458555 1.32168772 133.34547449 1.5625 119.6875 C1.58334656 118.52969025 1.60419312 117.37188049 1.62567139 116.1789856 C2.07021405 91.24665822 2.1023666 66.36864383 1.5625 41.4375 C1.5429425 40.5170993 1.52338501 39.59669861 1.50323486 38.64840698 C1.22210866 25.74968398 0.6915404 12.88357199 0 0 Z " fill="#78787B" transform="translate(2886,198)"/>
<path d="M0 0 C41.25 0 82.5 0 125 0 C125 6.93 125 13.86 125 21 C120.01936705 20.73610844 115.03888952 20.47046127 110.05859375 20.20043945 C108.36724193 20.10925493 106.67583599 20.01906822 104.984375 19.92993164 C102.54151452 19.8010189 100.09887653 19.66842023 97.65625 19.53515625 C96.91008423 19.49656998 96.16391846 19.4579837 95.3951416 19.41822815 C94.67499878 19.37826218 93.95485596 19.3382962 93.21289062 19.29711914 C92.59111938 19.26380997 91.96934814 19.23050079 91.32873535 19.19618225 C87.87147376 18.9049283 84.44098842 18.44333175 81 18 C80.95274394 30.00041343 80.91767454 42.00080321 80.89637566 54.00129223 C80.88613084 59.57926506 80.87234723 65.15717234 80.84912109 70.73510742 C80.72677934 100.90566725 81.44753164 130.86133269 83 161 C69.47 161 55.94 161 42 161 C42.32742188 154.99167969 42.65484375 148.98335937 42.9921875 142.79296875 C44.21258135 118.08988933 44.2376358 93.41863277 44.1373291 68.69122314 C44.11635452 62.94325317 44.10762865 57.19526335 44.09765625 51.44726562 C44.07661605 40.29812814 44.0427846 29.14907388 44 18 C42.7335817 18.16109253 41.46716339 18.32218506 40.16236877 18.48815918 C37.15599252 18.87058002 34.18222505 19.15762164 31.15234375 19.28125 C30.30631592 19.31806885 29.46028809 19.3548877 28.58862305 19.39282227 C27.71375244 19.42819092 26.83888184 19.46355957 25.9375 19.5 C17.27968969 19.87875529 8.6444615 20.38877545 0 21 C0 14.07 0 7.14 0 0 Z " fill="#78787B" transform="translate(1484,211)"/>
<path d="M0 0 C40.26 0 80.52 0 122 0 C122 6.93 122 13.86 122 21 C107.81 20.01 93.62 19.02 79 18 C78.71355926 76.0102539 78.71355926 76.0102539 80 134 C80.04801758 135.25989746 80.09603516 136.51979492 80.14550781 137.81787109 C80.39621573 144.21433411 80.68917066 150.60579652 81 157 C68.13 157 55.26 157 42 157 C42 141.43007264 42 141.43007264 42.49389648 133.68261719 C43.15921145 121.81497345 43.126195 109.96084265 43.09765625 98.078125 C43.0957856 95.75258413 43.09436476 93.42704287 43.09336853 91.10150146 C43.08959424 85.05188869 43.07980895 79.00230084 43.06866455 72.95269775 C43.0583395 66.75102068 43.05384741 60.54933948 43.04882812 54.34765625 C43.03818084 42.23176002 43.02116751 30.1158821 43 18 C38.80475235 18.26499955 34.60961 18.5315984 30.41455078 18.79956055 C28.99302798 18.89014936 27.57147919 18.98033153 26.14990234 19.07006836 C17.42444828 19.62118208 8.71051557 20.24226706 0 21 C0 14.07 0 7.14 0 0 Z " fill="#78787B" transform="translate(528,213)"/>
<path d="M0 0 C40.26 0 80.52 0 122 0 C122 6.93 122 13.86 122 21 C107.81 20.01 93.62 19.02 79 18 C78.94145242 34.41698564 78.94145242 34.41698564 78.90234375 50.83398438 C78.89056736 57.56831161 78.87693059 64.3025826 78.84912109 71.03686523 C78.73349219 99.78323456 79.35142239 128.29268205 81 157 C67.8 157 54.6 157 41 157 C41.32742187 150.42835938 41.65484375 143.85671875 41.9921875 137.0859375 C43.0974021 112.95914849 43.24405588 88.87781819 43.1373291 64.73016357 C43.11626206 59.42429324 43.10761032 54.11840075 43.09765625 48.8125 C43.07668666 38.54161294 43.04291306 28.27081733 43 18 C38.80475235 18.26499955 34.60961 18.5315984 30.41455078 18.79956055 C28.99302798 18.89014936 27.57147919 18.98033153 26.14990234 19.07006836 C17.42444828 19.62118208 8.71051557 20.24226706 0 21 C0 14.07 0 7.14 0 0 Z " fill="#78787B" transform="translate(2614,213)"/>
<path d="M0 0 C13.2 0 26.4 0 40 0 C39.84273437 4.22554687 39.68546875 8.45109375 39.5234375 12.8046875 C38.99552167 28.89154335 38.87197185 44.97581685 38.7890625 61.0703125 C38.77473696 63.60463517 38.76031151 66.13895727 38.74578857 68.67327881 C38.68733528 79.15569107 38.63147957 89.63807784 38.59863281 100.12060547 C38.57759781 106.616746 38.54227404 113.11267875 38.49787521 119.6086998 C38.48384288 122.05243359 38.47502211 124.49620376 38.47182083 126.93997574 C38.44255279 147.0850969 38.32226559 167.10622166 23.9375 182.9375 C9.41446013 196.20088845 -8.30999974 197.49864625 -27 197 C-27.66 193.37 -28.32 189.74 -29 186 C-28.0821875 185.90203125 -27.164375 185.8040625 -26.21875 185.703125 C-18.92651586 184.81457546 -13.35954773 183.66896985 -7 180 C-6.34 180 -5.68 180 -5 180 C-1.26205667 172.79773231 0.49792214 165.63000546 1.171875 157.578125 C1.25145447 156.67628479 1.33103394 155.77444458 1.4130249 154.84527588 C2.34747393 143.15956961 2.29903536 131.46500196 2.25 119.75 C2.24822754 118.51851227 2.24645508 117.28702454 2.24462891 116.01821899 C2.20172247 90.06704583 1.507505 64.13384148 0.71191406 38.19628906 C0.68874493 37.43616799 0.66557579 36.67604692 0.64170456 35.89289188 C0.53290057 32.33154252 0.42175274 28.77030693 0.30487061 25.20921326 C0.26484924 23.93707474 0.22482788 22.66493622 0.18359375 21.35424805 C0.13029907 19.72255928 0.13029907 19.72255928 0.07592773 18.0579071 C-0.03668107 12.03960495 0 6.01935558 0 0 Z " fill="#78787B" transform="translate(1051,211)"/>
<path d="M0 0 C13.2 0 26.4 0 40 0 C39.855625 3.04605469 39.71125 6.09210938 39.5625 9.23046875 C38.435629 34.11417637 37.79845116 58.96737732 37.8125 83.875 C37.8117749 85.11373871 37.8110498 86.35247742 37.81030273 87.62875366 C37.81152963 106.10536388 38.28450896 124.5393233 39 143 C39.57549591 142.96241577 40.15099182 142.92483154 40.743927 142.8861084 C46.74612753 142.49450128 52.74849929 142.10560332 58.75097656 141.71826172 C60.98962821 141.5734459 63.22823562 141.42794472 65.46679688 141.28173828 C68.68868751 141.07142837 71.91073033 140.86360225 75.1328125 140.65625 C76.12991241 140.59062866 77.12701233 140.52500732 78.15432739 140.45739746 C79.09484955 140.39733521 80.0353717 140.33727295 81.00439453 140.27539062 C81.82602081 140.22209595 82.64764709 140.16880127 83.49417114 140.1138916 C86.32677734 139.98514775 89.16446956 140 92 140 C92 146.93 92 153.86 92 161 C89.6796875 160.9278125 87.359375 160.855625 84.96875 160.78125 C56.58782006 159.91686899 28.37384373 159.98122945 0 161 C-0.10933145 154.91388235 -0.02235083 148.86360966 0.35446358 142.78925228 C1.09032073 130.82473438 1.14619214 118.88574912 1.1328125 106.90234375 C1.13348867 104.7305958 1.13446128 102.55884792 1.13571167 100.38710022 C1.13717361 95.86832956 1.13508281 91.34957886 1.13037109 86.83081055 C1.12467131 81.09021638 1.12796408 75.34966897 1.13394356 69.6090765 C1.13758717 65.13476724 1.13639334 60.66046875 1.13381577 56.18615913 C1.13315714 54.07143714 1.13393684 51.95671411 1.13629532 49.84199333 C1.14547669 39.3023676 1.08849507 28.80256721 0.34897041 18.28475094 C-0.06884909 12.14324851 0 6.21840704 0 0 Z " fill="#78787B" transform="translate(2474,211)"/>
</svg>
